<svg xmlns="http://www.w3.org/2000/svg" viewBox="0 0 96 96"><defs><style>.cls-1{fill:#f0a70a;}.cls-2,.cls-3{fill:none;}.cls-2{stroke:#fff;stroke-linecap:round;stroke-linejoin:round;stroke-width:4px;}</style></defs><title>发布广告</title><g id="图层_2" data-name="图层 2"><g id="图层_1-2" data-name="图层 1"><g id="发布广告"><polygon class="cls-1" points="16.38 87.55 4.53 87.55 4.53 3 77.3 3 77.3 27.75 16.38 87.55"/><line class="cls-2" x1="20.74" y1="20.38" x2="61.09" y2="20.38"/><line class="cls-2" x1="20.74" y1="36.69" x2="61.09" y2="36.69"/><line class="cls-2" x1="20.74" y1="52.99" x2="43.4" y2="52.99"/><line class="cls-2" x1="20.74" y1="69.3" x2="30.43" y2="69.3"/><path class="cls-1" d="M84.9,56.46,52.53,88.83,39.05,75.34a1,1,0,0,0-.23-.18L71.2,42.77Z"/><path class="cls-1" d="M89.71,51.65,87.36,54,73.67,40.31,76,38a6,6,0,0,1,8.5,0l5.19,5.2A6,6,0,0,1,89.71,51.65Z"/><polygon class="cls-1" points="49.65 90.88 34.66 93 36.79 78.02 49.65 90.88"/><rect class="cls-3" width="96" height="96"/></g></g></g></svg>