<svg xmlns="http://www.w3.org/2000/svg" viewBox="0 0 96 96"><defs><style>.cls-1{fill:#f0a70a;}.cls-2,.cls-3,.cls-4{fill:none;}.cls-2{stroke:#fff;stroke-linecap:round;stroke-linejoin:round;}.cls-2,.cls-3{stroke-width:4px;}.cls-3{stroke:#f0a70a;stroke-miterlimit:10;}</style></defs><title>我的广告</title><g id="图层_2" data-name="图层 2"><g id="图层_1-2" data-name="图层 1"><g id="我的广告"><path class="cls-1" d="M12,10.37H84a12,12,0,0,1,12,12v55a0,0,0,0,1,0,0H0a0,0,0,0,1,0,0v-55A12,12,0,0,1,12,10.37Z"/><path class="cls-2" d="M53.36,28.69H65.44A10.55,10.55,0,0,1,76,39.25v8.57A10.55,10.55,0,0,1,65.44,58.37H53.36a0,0,0,0,1,0,0V28.69A0,0,0,0,1,53.36,28.69Z"/><polyline class="cls-2" points="44.9 59.09 32.46 28.7 20.01 59.09"/><line class="cls-2" x1="24.17" y1="48.93" x2="40.56" y2="48.93"/><line class="cls-3" y1="85.63" x2="96" y2="85.63"/><rect class="cls-4" width="96" height="96"/></g></g></g></svg>