<svg xmlns="http://www.w3.org/2000/svg" viewBox="0 0 96 96"><defs><style>.cls-1,.cls-3,.cls-4{fill:none;}.cls-1{stroke:#f0a70a;}.cls-1,.cls-3{stroke-linecap:round;stroke-linejoin:round;stroke-width:4px;}.cls-2{fill:#f0a70a;}.cls-3{stroke:#fff;}</style></defs><title>法币交易</title><g id="图层_2" data-name="图层 2"><g id="图层_1-2" data-name="图层 1"><g id="法币交易"><path class="cls-1" d="M92.28,60.43A45.67,45.67,0,0,1,83.54,77.2c-1,1.14-2,2.25-3,3.32a46,46,0,0,1-65,0q-1.61-1.6-3-3.32A45.52,45.52,0,0,1,3.72,60.43V77.2"/><path class="cls-1" d="M92.28,18.79V35.56a45.67,45.67,0,0,0-8.74-16.77c-1-1.14-2-2.25-3-3.32a46.06,46.06,0,0,0-65,0q-1.61,1.6-3,3.32A45.67,45.67,0,0,0,3.72,35.56"/><circle class="cls-2" cx="48" cy="48" r="37.02"/><line class="cls-3" x1="32.54" y1="44.89" x2="63.46" y2="44.89"/><line class="cls-3" x1="32.54" y1="58.82" x2="63.46" y2="58.82"/><line class="cls-3" x1="48" y1="42.86" x2="48" y2="69.37"/><line class="cls-3" x1="48" y1="42.86" x2="64.23" y2="26.63"/><line class="cls-3" x1="48" y1="42.86" x2="31.77" y2="26.63"/><rect class="cls-4" width="96" height="96"/></g></g></g></svg>