<svg xmlns="http://www.w3.org/2000/svg" xmlns:xlink="http://www.w3.org/1999/xlink" viewBox="0 0 123 38"><defs><style>.cls-1{fill:url(#未命名的渐变_26);}.cls-2{fill:url(#未命名的渐变_26-2);}.cls-3{fill:url(#未命名的渐变_26-3);}.cls-4{fill:#3486d0;}.cls-5{fill:url(#未命名的渐变_26-4);}.cls-6{fill:url(#未命名的渐变_26-5);}.cls-7{fill:url(#未命名的渐变_26-6);}.cls-8{fill:url(#未命名的渐变_26-7);}.cls-9{fill:url(#未命名的渐变_26-8);}.cls-10{fill:url(#未命名的渐变_26-9);}.cls-11{fill:url(#未命名的渐变_26-10);}.cls-12{fill:url(#未命名的渐变_26-11);}.cls-13{fill:url(#未命名的渐变_26-12);}.cls-14{fill:url(#未命名的渐变_26-13);}.cls-15{fill:url(#未命名的渐变_26-14);}.cls-16{fill:url(#未命名的渐变_26-15);}.cls-17{fill:url(#未命名的渐变_26-16);}.cls-18{fill:url(#未命名的渐变_26-17);}.cls-19{fill:url(#未命名的渐变_26-18);}.cls-20{fill:url(#未命名的渐变_9);}.cls-21{fill:url(#未命名的渐变_9-2);}.cls-22{fill:url(#未命名的渐变_9-3);}.cls-23{fill:#c60;}.cls-24{fill:url(#未命名的渐变_9-4);}.cls-25{fill:url(#未命名的渐变_9-5);}.cls-26{fill:url(#未命名的渐变_9-6);}.cls-27{fill:url(#未命名的渐变_9-7);}.cls-28{fill:url(#未命名的渐变_9-8);}.cls-29{fill:url(#未命名的渐变_9-9);}.cls-30{fill:url(#未命名的渐变_9-10);}.cls-31{fill:url(#未命名的渐变_9-11);}.cls-32{fill:url(#未命名的渐变_9-12);}.cls-33{fill:url(#未命名的渐变_9-13);}.cls-34{fill:url(#未命名的渐变_9-14);}.cls-35{fill:url(#未命名的渐变_9-15);}.cls-36{fill:url(#未命名的渐变_9-16);}.cls-37{fill:url(#未命名的渐变_9-17);}.cls-38{fill:url(#未命名的渐变_9-18);}.cls-39{fill:#fff;}.cls-40{fill:url(#未命名的渐变_5);}.cls-41{fill:url(#未命名的渐变_5-2);}.cls-42{fill:url(#未命名的渐变_5-3);}.cls-43{fill:none;}</style><linearGradient id="未命名的渐变_26" x1="27.9" y1="24.54" x2="20.85" y2="28.59" gradientUnits="userSpaceOnUse"><stop offset="0" stop-color="#5dccf8"/><stop offset="1" stop-color="#3486d0"/></linearGradient><linearGradient id="未命名的渐变_26-2" x1="28.63" y1="25.82" x2="21.58" y2="29.87" xlink:href="#未命名的渐变_26"/><linearGradient id="未命名的渐变_26-3" x1="29.37" y1="27.1" x2="22.32" y2="31.15" xlink:href="#未命名的渐变_26"/><linearGradient id="未命名的渐变_26-4" x1="30.83" y1="29.65" x2="23.79" y2="33.7" xlink:href="#未命名的渐变_26"/><linearGradient id="未命名的渐变_26-5" x1="30.1" y1="28.38" x2="23.05" y2="32.43" xlink:href="#未命名的渐变_26"/><linearGradient id="未命名的渐变_26-6" x1="31.57" y1="30.93" x2="24.52" y2="34.98" xlink:href="#未命名的渐变_26"/><linearGradient id="未命名的渐变_26-7" x1="10.92" y1="23.61" x2="10.84" y2="14.62" xlink:href="#未命名的渐变_26"/><linearGradient id="未命名的渐变_26-8" x1="9.46" y1="23.62" x2="9.37" y2="14.63" xlink:href="#未命名的渐变_26"/><linearGradient id="未命名的渐变_26-9" x1="7.99" y1="23.64" x2="7.91" y2="14.64" xlink:href="#未命名的渐变_26"/><linearGradient id="未命名的渐变_26-10" x1="5.06" y1="23.66" x2="4.98" y2="14.67" xlink:href="#未命名的渐变_26"/><linearGradient id="未命名的渐变_26-11" x1="6.53" y1="23.65" x2="6.45" y2="14.66" xlink:href="#未命名的渐变_26"/><linearGradient id="未命名的渐变_26-12" x1="3.6" y1="23.68" x2="3.52" y2="14.68" xlink:href="#未命名的渐变_26"/><linearGradient id="未命名的渐变_26-13" x1="20.68" y1="9.23" x2="27.89" y2="13.6" xlink:href="#未命名的渐变_26"/><linearGradient id="未命名的渐变_26-14" x1="21.46" y1="7.95" x2="28.67" y2="12.33" xlink:href="#未命名的渐变_26"/><linearGradient id="未命名的渐变_26-15" x1="22.23" y1="6.68" x2="29.44" y2="11.05" xlink:href="#未命名的渐变_26"/><linearGradient id="未命名的渐变_26-16" x1="23.78" y1="4.13" x2="30.99" y2="8.5" xlink:href="#未命名的渐变_26"/><linearGradient id="未命名的渐变_26-17" x1="23" y1="5.4" x2="30.21" y2="9.78" xlink:href="#未命名的渐变_26"/><linearGradient id="未命名的渐变_26-18" x1="24.55" y1="2.85" x2="31.76" y2="7.23" xlink:href="#未命名的渐变_26"/><linearGradient id="未命名的渐变_9" x1="17.36" y1="8.92" x2="10.56" y2="14.43" gradientUnits="userSpaceOnUse"><stop offset="0" stop-color="#f29600"/><stop offset="1" stop-color="#ffd413"/></linearGradient><linearGradient id="未命名的渐变_9-2" x1="16.53" y1="7.89" x2="9.73" y2="13.4" xlink:href="#未命名的渐变_9"/><linearGradient id="未命名的渐变_9-3" x1="15.7" y1="6.87" x2="8.9" y2="12.38" xlink:href="#未命名的渐变_9"/><linearGradient id="未命名的渐变_9-4" x1="14.04" y1="4.81" x2="7.23" y2="10.32" xlink:href="#未命名的渐变_9"/><linearGradient id="未命名的渐变_9-5" x1="14.87" y1="5.84" x2="8.06" y2="11.35" xlink:href="#未命名的渐变_9"/><linearGradient id="未命名的渐变_9-6" x1="13.21" y1="3.78" x2="6.4" y2="9.29" xlink:href="#未命名的渐变_9"/><linearGradient id="未命名的渐变_9-7" x1="28.89" y1="23.86" x2="28.89" y2="14.95" xlink:href="#未命名的渐变_9"/><linearGradient id="未命名的渐变_9-8" x1="30.36" y1="23.86" x2="30.36" y2="14.95" xlink:href="#未命名的渐变_9"/><linearGradient id="未命名的渐变_9-9" x1="31.83" y1="23.86" x2="31.83" y2="14.95" xlink:href="#未命名的渐变_9"/><linearGradient id="未命名的渐变_9-10" x1="34.78" y1="23.86" x2="34.78" y2="14.95" xlink:href="#未命名的渐变_9"/><linearGradient id="未命名的渐变_9-11" x1="33.3" y1="23.86" x2="33.3" y2="14.95" xlink:href="#未命名的渐变_9"/><linearGradient id="未命名的渐变_9-12" x1="36.25" y1="23.86" x2="36.25" y2="14.95" xlink:href="#未命名的渐变_9"/><linearGradient id="未命名的渐变_9-13" x1="11.23" y1="23.61" x2="18.68" y2="28.47" xlink:href="#未命名的渐变_9"/><linearGradient id="未命名的渐变_9-14" x1="10.4" y1="24.88" x2="17.85" y2="29.74" xlink:href="#未命名的渐变_9"/><linearGradient id="未命名的渐变_9-15" x1="9.57" y1="26.15" x2="17.02" y2="31.01" xlink:href="#未命名的渐变_9"/><linearGradient id="未命名的渐变_9-16" x1="7.91" y1="28.69" x2="15.37" y2="33.55" xlink:href="#未命名的渐变_9"/><linearGradient id="未命名的渐变_9-17" x1="8.74" y1="27.42" x2="16.2" y2="32.28" xlink:href="#未命名的渐变_9"/><linearGradient id="未命名的渐变_9-18" x1="7.09" y1="29.96" x2="14.54" y2="34.82" xlink:href="#未命名的渐变_9"/><linearGradient id="未命名的渐变_5" x1="92.71" y1="10.23" x2="96.67" y2="16.7" gradientUnits="userSpaceOnUse"><stop offset="0" stop-color="#fff"/><stop offset="1" stop-color="#fff" stop-opacity="0"/></linearGradient><linearGradient id="未命名的渐变_5-2" x1="104.14" y1="29.23" x2="99.52" y2="22.24" xlink:href="#未命名的渐变_5"/><linearGradient id="未命名的渐变_5-3" x1="64.18" y1="16.78" x2="61.8" y2="16.78" xlink:href="#未命名的渐变_5"/></defs><title>资源 3</title><g id="图层_2" data-name="图层 2"><g id="图层_1-2" data-name="图层 1"><path class="cls-1" d="M38.37,24.64H18.5a.41.41,0,1,1,0-.81H38.37a.41.41,0,1,1,0,.81Z"/><path class="cls-2" d="M37.39,26.34H19.48a.41.41,0,1,1,0-.81H37.39a.41.41,0,1,1,0,.81Z"/><path class="cls-3" d="M36.41,28H20.46a.41.41,0,0,1,0-.81H36.41a.41.41,0,0,1,0,.81Z"/><path class="cls-4" d="M9.28,31.44H8.4a.41.41,0,1,1,0-.81h.88a.41.41,0,0,1,0,.81Z"/><path class="cls-5" d="M34.44,31.44h-12a.41.41,0,0,1,0-.81h12a.41.41,0,1,1,0,.81Z"/><path class="cls-6" d="M35.43,29.74h-14a.41.41,0,0,1,0-.81h14a.41.41,0,0,1,0,.81Z"/><path class="cls-4" d="M10.26,33.14H7.42a.41.41,0,1,1,0-.81h2.84a.41.41,0,0,1,0,.81Z"/><path class="cls-7" d="M33.46,33.14h-10a.41.41,0,1,1,0-.81H33.46a.41.41,0,1,1,0,.81Z"/><path class="cls-8" d="M6,32.84a.46.46,0,0,1-.2-.05.42.42,0,0,1-.15-.56L15.54,15a.41.41,0,1,1,.7.41L6.3,32.64A.39.39,0,0,1,6,32.84Z"/><path class="cls-9" d="M5,31.14a.46.46,0,0,1-.2-.05.42.42,0,0,1-.15-.56l9-15.51a.41.41,0,0,1,.55-.15.42.42,0,0,1,.15.56l-9,15.51A.39.39,0,0,1,5,31.14Z"/><path class="cls-10" d="M4,29.44a.46.46,0,0,1-.2-.05.41.41,0,0,1-.15-.56l8-13.81a.41.41,0,0,1,.71.41l-8,13.81A.39.39,0,0,1,4,29.44Z"/><path class="cls-4" d="M14.61,4.24a.35.35,0,0,1-.2,0,.4.4,0,0,1-.15-.55l.44-.76a.39.39,0,0,1,.55-.15.4.4,0,0,1,.15.55L15,4A.39.39,0,0,1,14.61,4.24Z"/><path class="cls-11" d="M2,26A.42.42,0,0,1,1.82,26a.39.39,0,0,1-.14-.55L7.69,15a.41.41,0,0,1,.55-.15.42.42,0,0,1,.15.56l-6,10.41A.41.41,0,0,1,2,26Z"/><path class="cls-12" d="M3,27.74a.46.46,0,0,1-.2,0,.41.41,0,0,1-.15-.56L9.65,15a.41.41,0,1,1,.7.41l-7,12.11A.41.41,0,0,1,3,27.74Z"/><path class="cls-4" d="M12.65,4.24a.35.35,0,0,1-.2,0,.4.4,0,0,1-.15-.55l1.42-2.47a.41.41,0,0,1,.7.41L13,4A.41.41,0,0,1,12.65,4.24Z"/><path class="cls-13" d="M1.05,24.34a.54.54,0,0,1-.21-.05.42.42,0,0,1-.15-.56l5-8.71a.41.41,0,1,1,.71.41l-5,8.71A.41.41,0,0,1,1.05,24.34Z"/><path class="cls-14" d="M25.3,18a.39.39,0,0,1-.35-.2L15,.61a.41.41,0,1,1,.7-.41l9.94,17.22a.41.41,0,0,1-.15.55A.35.35,0,0,1,25.3,18Z"/><path class="cls-15" d="M26.28,16.32a.39.39,0,0,1-.35-.2L17,.61a.42.42,0,0,1,.15-.56.41.41,0,0,1,.55.15l9,15.51a.42.42,0,0,1-.15.56A.46.46,0,0,1,26.28,16.32Z"/><path class="cls-16" d="M27.26,14.62a.39.39,0,0,1-.35-.2L18.93.61a.42.42,0,0,1,.15-.56.42.42,0,0,1,.56.15l8,13.81a.41.41,0,0,1-.15.56A.35.35,0,0,1,27.26,14.62Z"/><path class="cls-4" d="M36.24,23.37a.39.39,0,0,1-.35-.2l-.44-.77a.4.4,0,0,1,.14-.55.42.42,0,0,1,.56.15l.44.76a.41.41,0,0,1-.15.55A.39.39,0,0,1,36.24,23.37Z"/><path class="cls-17" d="M29.22,11.22a.41.41,0,0,1-.35-.2L22.86.61A.4.4,0,0,1,23,.06a.4.4,0,0,1,.55.14l6,10.41a.41.41,0,0,1-.14.56A.54.54,0,0,1,29.22,11.22Z"/><path class="cls-18" d="M28.24,12.92a.41.41,0,0,1-.35-.2L20.9.61a.4.4,0,0,1,.15-.55A.4.4,0,0,1,21.6.2l7,12.11a.41.41,0,0,1-.15.56A.46.46,0,0,1,28.24,12.92Z"/><path class="cls-4" d="M38.2,23.37a.39.39,0,0,1-.35-.2L36.43,20.7a.4.4,0,0,1,.15-.55.41.41,0,0,1,.55.15l1.42,2.46a.4.4,0,0,1-.15.55A.36.36,0,0,1,38.2,23.37Z"/><path class="cls-19" d="M30.21,9.52a.42.42,0,0,1-.36-.2l-5-8.71A.39.39,0,0,1,25,.06a.41.41,0,0,1,.56.14l5,8.71a.42.42,0,0,1-.15.56A.53.53,0,0,1,30.21,9.52Z"/><path class="cls-20" d="M21.31,14.17H1.44a.4.4,0,0,1-.41-.4.41.41,0,0,1,.41-.41H21.31a.41.41,0,0,1,.41.41A.4.4,0,0,1,21.31,14.17Z"/><path class="cls-21" d="M20.33,12.47H2.42a.41.41,0,1,1,0-.81H20.33a.41.41,0,1,1,0,.81Z"/><path class="cls-22" d="M19.35,10.77H3.4a.41.41,0,0,1,0-.81h16a.41.41,0,0,1,0,.81Z"/><path class="cls-23" d="M31.41,7.37h-.88a.41.41,0,0,1,0-.81h.88a.41.41,0,1,1,0,.81Z"/><path class="cls-24" d="M17.39,7.37h-12a.41.41,0,1,1,0-.81h12a.41.41,0,0,1,0,.81Z"/><path class="cls-25" d="M18.37,9.07h-14a.41.41,0,0,1,0-.81h14a.41.41,0,0,1,0,.81Z"/><path class="cls-23" d="M32.39,5.67H29.55a.41.41,0,0,1,0-.81h2.84a.41.41,0,1,1,0,.81Z"/><path class="cls-26" d="M16.4,5.67h-10a.41.41,0,1,1,0-.81h10a.41.41,0,1,1,0,.81Z"/><path class="cls-27" d="M23.92,23.18a.46.46,0,0,1-.2-.05.41.41,0,0,1-.15-.56L33.51,5.36a.4.4,0,0,1,.55-.15.42.42,0,0,1,.15.56L24.27,23A.41.41,0,0,1,23.92,23.18Z"/><path class="cls-28" d="M25.88,23.18a.46.46,0,0,1-.2-.05.42.42,0,0,1-.15-.56l9-15.51A.41.41,0,0,1,35,6.91a.42.42,0,0,1,.15.56L26.23,23A.39.39,0,0,1,25.88,23.18Z"/><path class="cls-29" d="M27.84,23.18a.53.53,0,0,1-.2-.05.42.42,0,0,1-.15-.56l8-13.81a.41.41,0,1,1,.7.41L28.2,23A.42.42,0,0,1,27.84,23.18Z"/><path class="cls-23" d="M24.76,35.33a.36.36,0,0,1-.2-.06.4.4,0,0,1-.15-.55l.44-.76a.41.41,0,0,1,.55-.15.4.4,0,0,1,.15.55l-.44.77A.39.39,0,0,1,24.76,35.33Z"/><path class="cls-30" d="M31.77,23.18a.46.46,0,0,1-.2-.05.42.42,0,0,1-.15-.56l6-10.41A.4.4,0,0,1,38,12a.39.39,0,0,1,.14.55L32.12,23A.39.39,0,0,1,31.77,23.18Z"/><path class="cls-31" d="M29.81,23.18a.46.46,0,0,1-.2-.05.41.41,0,0,1-.15-.56l7-12.11a.41.41,0,1,1,.7.41L30.16,23A.41.41,0,0,1,29.81,23.18Z"/><path class="cls-23" d="M25.74,37a.36.36,0,0,1-.2-.06.4.4,0,0,1-.15-.55L26.81,34a.41.41,0,0,1,.55-.15.4.4,0,0,1,.15.55l-1.42,2.47A.39.39,0,0,1,25.74,37Z"/><path class="cls-32" d="M33.73,23.18a.53.53,0,0,1-.2-.05.42.42,0,0,1-.15-.56l5-8.71a.41.41,0,1,1,.71.41l-5,8.71A.42.42,0,0,1,33.73,23.18Z"/><path class="cls-33" d="M24.45,38a.41.41,0,0,1-.35-.2L14.16,20.58a.4.4,0,1,1,.7-.4L24.8,37.39a.41.41,0,0,1-.15.56A.46.46,0,0,1,24.45,38Z"/><path class="cls-34" d="M22.49,38a.39.39,0,0,1-.35-.2l-9-15.51a.42.42,0,0,1,.15-.56.41.41,0,0,1,.55.15l9,15.51a.42.42,0,0,1-.15.56A.46.46,0,0,1,22.49,38Z"/><path class="cls-35" d="M20.52,38a.41.41,0,0,1-.35-.2L12.2,24a.41.41,0,1,1,.7-.41l8,13.81a.42.42,0,0,1-.15.56A.54.54,0,0,1,20.52,38Z"/><path class="cls-23" d="M4,16.2a.41.41,0,0,1-.35-.2l-.44-.76a.41.41,0,0,1,.15-.55.39.39,0,0,1,.55.15l.44.76a.4.4,0,0,1-.14.55A.41.41,0,0,1,4,16.2Z"/><path class="cls-36" d="M16.6,38a.39.39,0,0,1-.35-.2l-6-10.41a.41.41,0,0,1,.14-.56.42.42,0,0,1,.56.15l6,10.41a.4.4,0,0,1-.15.55A.36.36,0,0,1,16.6,38Z"/><path class="cls-37" d="M18.56,38a.39.39,0,0,1-.35-.2l-7-12.11a.41.41,0,1,1,.7-.41l7,12.11a.4.4,0,0,1-.15.55A.36.36,0,0,1,18.56,38Z"/><path class="cls-23" d="M3,17.9a.41.41,0,0,1-.35-.2L1.26,15.24a.41.41,0,0,1,.7-.41L3.38,17.3a.4.4,0,0,1-.15.55A.35.35,0,0,1,3,17.9Z"/><path class="cls-38" d="M14.63,38a.41.41,0,0,1-.35-.2l-5-8.71a.41.41,0,0,1,.71-.41l5,8.71a.41.41,0,0,1-.14.56A.54.54,0,0,1,14.63,38Z"/><path class="cls-39" d="M49,10.19h4.21V29.44H49Z"/><path class="cls-39" d="M87.56,25.78v3.66H75.41V10.19H87.17v3.66H79.63v4h7v3.52h-7v4.44Z"/><polygon class="cls-40" points="97.29 13.73 94.86 17.93 90.4 10.19 95.25 10.19 97.29 13.73"/><polygon class="cls-41" points="101.51 29.44 99.12 25.3 101.54 21.09 106.36 29.44 101.51 29.44"/><polygon class="cls-39" points="106.01 10.19 94.9 29.44 90.04 29.44 101.16 10.19 106.01 10.19"/><path class="cls-42" d="M65,10.19H61.66v4H65a2.63,2.63,0,0,1,0,5.26H62.45v4H65a6.59,6.59,0,1,0,0-13.18Z"/><polygon class="cls-39" points="57.44 10.19 57.44 29.44 61.66 29.44 61.66 19.41 61.66 14.15 61.66 10.19 57.44 10.19"/><rect class="cls-43" width="123" height="38"/></g></g></svg>